<?xml version="1.0" encoding="UTF-8" standalone="no"?>
<!-- Created with Inkscape (http://www.inkscape.org/) -->

<svg
   xmlns:dc="http://purl.org/dc/elements/1.1/"
   xmlns:cc="http://creativecommons.org/ns#"
   xmlns:rdf="http://www.w3.org/1999/02/22-rdf-syntax-ns#"
   xmlns:svg="http://www.w3.org/2000/svg"
   xmlns="http://www.w3.org/2000/svg"
   xmlns:sodipodi="http://sodipodi.sourceforge.net/DTD/sodipodi-0.dtd"
   xmlns:inkscape="http://www.inkscape.org/namespaces/inkscape"
   width="19.836784mm"
   height="25.823139mm"
   viewBox="0 0 19.836784 25.823139"
   version="1.1"
   id="svg8"
   inkscape:version="0.92.4 (5da689c313, 2019-01-14)"
   sodipodi:docname="Icone Solution.svg">
  <defs
     id="defs2">
    <pattern
       y="0"
       x="0"
       height="6"
       width="6"
       patternUnits="userSpaceOnUse"
       id="EMFhbasepattern" />
  </defs>
  <sodipodi:namedview
     id="base"
     pagecolor="#ffffff"
     bordercolor="#666666"
     borderopacity="1.0"
     inkscape:pageopacity="0.0"
     inkscape:pageshadow="2"
     inkscape:zoom="1"
     inkscape:cx="41.766731"
     inkscape:cy="55.604025"
     inkscape:document-units="mm"
     inkscape:current-layer="layer1"
     showgrid="false"
     inkscape:window-width="1280"
     inkscape:window-height="898"
     inkscape:window-x="-8"
     inkscape:window-y="-8"
     inkscape:window-maximized="1"
     inkscape:showpageshadow="false"
     fit-margin-top="0"
     fit-margin-left="0"
     fit-margin-right="0"
     fit-margin-bottom="0"
     showborder="false" />
  <metadata
     id="metadata5">
    <rdf:RDF>
      <cc:Work
         rdf:about="">
        <dc:format>image/svg+xml</dc:format>
        <dc:type
           rdf:resource="http://purl.org/dc/dcmitype/StillImage" />
        <dc:title></dc:title>
      </cc:Work>
    </rdf:RDF>
  </metadata>
  <g
     inkscape:label="Calque 1"
     inkscape:groupmode="layer"
     id="layer1"
     transform="translate(-94.782553,-163.43843)">
    <g
       id="g43"
       transform="translate(-1.407551)">
      <path
         inkscape:connector-curvature="0"
         style="fill:#b39361;fill-opacity:1;fill-rule:nonzero;stroke:none;stroke-width:0.26458332"
         d="m 106.28842,163.43843 h -0.1905 c -5.3763,0 -9.821264,4.3603 -9.90593,9.73659 -0.105832,5.48213 4.25447,10.01176 9.7366,10.09643 l 0.16933,0.0212 c 5.37629,0 9.82126,-4.38147 9.92709,-9.75776 0.10583,-5.46097 -4.27563,-9.9906 -9.73659,-10.09643 z m -0.1905,19.13452 h -0.16933 c -5.0588,-0.10583 -9.122771,-4.2968 -9.038105,-9.37676 0.105833,-4.9953 4.233305,-9.0381 9.207435,-9.0381 h 0.16933 c 5.07996,0.0847 9.14393,4.2968 9.0381,9.37676 -0.0847,4.97413 -4.21214,9.0381 -9.20743,9.0381 z"
         id="path57" />
      <path
         inkscape:connector-curvature="0"
         style="fill:#b39361;fill-opacity:1;fill-rule:nonzero;stroke:none;stroke-width:0.26458332"
         d="m 110.11955,170.63504 -4.88946,4.7413 -3.09031,-3.17498 c -0.127,-0.14816 -0.35983,-0.14816 -0.48683,-0.0212 -0.14817,0.14816 -0.14817,0.35983 -0.0212,0.50799 l 3.32315,3.45014 c 0.0635,0.0635 0.14816,0.127 0.25399,0.10584 0.0847,0 0.1905,-0.0423 0.254,-0.10584 l 5.16463,-4.97413 c 0.127,-0.14816 0.14817,-0.35983 0,-0.50799 -0.127,-0.14817 -0.35983,-0.14817 -0.508,-0.0212 z"
         id="path59" />
    </g>
    <g
       id="g39">
      <path
         inkscape:connector-curvature="0"
         style="fill:#b39361;fill-opacity:1;fill-rule:nonzero;stroke:none;stroke-width:0.26458332"
         d="m 97.123317,188.35141 c 0,-0.10583 -0.04233,-0.21167 -0.148166,-0.29633 -0.105832,-0.0847 -0.275165,-0.14817 -0.529163,-0.21167 -0.444496,-0.10583 -0.783161,-0.25399 -1.015992,-0.40216 -0.232832,-0.14817 -0.338664,-0.35983 -0.338664,-0.635 0,-0.27516 0.126999,-0.48683 0.380997,-0.65616 0.275165,-0.16933 0.592662,-0.254 1.015992,-0.254 0.402164,0 0.740828,0.0847 0.994826,0.27517 0.275165,0.1905 0.380997,0.42333 0.380997,0.71966 v 0 h -0.740827 c 0,-0.14817 -0.04233,-0.27516 -0.169332,-0.35983 -0.105833,-0.10583 -0.275165,-0.14817 -0.48683,-0.14817 -0.190499,0 -0.359831,0.0423 -0.465663,0.127 -0.105833,0.0635 -0.169332,0.16934 -0.169332,0.29633 0,0.10584 0.0635,0.21167 0.169332,0.27517 0.126999,0.0635 0.338664,0.14816 0.613828,0.23283 0.423331,0.0847 0.740828,0.23283 0.952493,0.381 0.211666,0.16933 0.317498,0.40216 0.317498,0.65616 0,0.29633 -0.126999,0.508 -0.380997,0.67733 -0.253998,0.14816 -0.592662,0.23283 -1.015993,0.23283 -0.402163,0 -0.761994,-0.0847 -1.058325,-0.27517 -0.296331,-0.19049 -0.444497,-0.44449 -0.444497,-0.76199 v -0.0212 h 0.740828 c 0,0.1905 0.0635,0.33866 0.190499,0.42333 0.148165,0.10583 0.338664,0.14817 0.571495,0.14817 0.211665,0 0.380998,-0.0423 0.48683,-0.127 0.105833,-0.0635 0.148166,-0.16934 0.148166,-0.29633 z"
         id="path61" />
      <path
         inkscape:connector-curvature="0"
         style="fill:#b39361;fill-opacity:1;fill-rule:nonzero;stroke:none;stroke-width:0.26458332"
         d="m 98.287475,187.97041 c 0,-0.35983 0.105832,-0.65616 0.338664,-0.88899 0.232832,-0.23283 0.550329,-0.33867 0.973659,-0.33867 0.402162,0 0.719662,0.10584 0.952492,0.33867 0.23283,0.23283 0.35983,0.52916 0.35983,0.88899 v 0.0635 c 0,0.35983 -0.127,0.65616 -0.35983,0.889 -0.23283,0.23283 -0.55033,0.33866 -0.952492,0.33866 -0.42333,0 -0.740827,-0.10583 -0.973659,-0.33866 -0.232832,-0.23284 -0.338664,-0.52917 -0.338664,-0.889 z m 0.740828,0.0635 c 0,0.21167 0.04233,0.381 0.126999,0.52917 0.105832,0.12699 0.232831,0.19049 0.444496,0.19049 0.190499,0 0.338664,-0.0635 0.423332,-0.19049 0.0847,-0.14817 0.127,-0.3175 0.127,-0.52917 v -0.0635 c 0,-0.21166 -0.0423,-0.38099 -0.127,-0.52916 -0.08467,-0.127 -0.232833,-0.1905 -0.423332,-0.1905 -0.211665,0 -0.338664,0.0635 -0.444496,0.1905 -0.08467,0.14817 -0.126999,0.3175 -0.126999,0.52916 z"
         id="path63" />
      <path
         inkscape:connector-curvature="0"
         style="fill:#b39361;fill-opacity:1;fill-rule:nonzero;stroke:none;stroke-width:0.26458332"
         d="m 102.16095,189.21924 h -0.74083 v -3.51364 h 0.74083 z"
         id="path65" />
      <path
         inkscape:connector-curvature="0"
         style="fill:#b39361;fill-opacity:1;fill-rule:nonzero;stroke:none;stroke-width:0.26458332"
         d="m 104.48926,188.85941 c -0.0847,0.12699 -0.1905,0.23283 -0.3175,0.29633 -0.14816,0.0847 -0.29633,0.10583 -0.46566,0.10583 -0.29633,0 -0.52916,-0.0847 -0.69849,-0.23283 -0.14817,-0.16933 -0.23284,-0.42333 -0.23284,-0.78316 v -1.46049 h 0.74083 v 1.46049 c 0,0.1905 0.0423,0.31749 0.10584,0.40216 0.0635,0.0635 0.16933,0.10583 0.29633,0.10583 0.127,0 0.23283,-0.0212 0.31749,-0.0423 0.0847,-0.0423 0.14817,-0.0847 0.21167,-0.14816 v -1.77799 h 0.74083 v 2.43415 h -0.635 z"
         id="path67" />
      <path
         inkscape:connector-curvature="0"
         style="fill:#b39361;fill-opacity:1;fill-rule:nonzero;stroke:none;stroke-width:0.26458332"
         d="m 106.66941,186.17126 v 0.61383 h 0.46567 v 0.46566 h -0.46567 v 1.22766 c 0,0.10583 0.0212,0.16933 0.0635,0.21166 0.0423,0.0423 0.10583,0.0635 0.16933,0.0635 0.0423,0 0.0847,0 0.10584,0 0.0212,-0.0212 0.0635,-0.0212 0.10583,-0.0212 l 0.0635,0.46567 c -0.0847,0.0212 -0.14817,0.0423 -0.23283,0.0423 -0.0635,0.0212 -0.14817,0.0212 -0.23283,0.0212 -0.254,0 -0.4445,-0.0635 -0.59267,-0.1905 -0.14816,-0.127 -0.21166,-0.3175 -0.21166,-0.59266 v -1.22766 h -0.40217 v -0.46566 h 0.40217 v -0.61383 z"
         id="path69" />
      <path
         inkscape:connector-curvature="0"
         style="fill:#b39361;fill-opacity:1;fill-rule:nonzero;stroke:none;stroke-width:0.26458332"
         d="m 108.40507,189.21924 h -0.762 v -2.43415 h 0.762 z m 0,-3.02681 h -0.762 v -0.48683 h 0.762 z"
         id="path71" />
      <path
         inkscape:connector-curvature="0"
         style="fill:#b39361;fill-opacity:1;fill-rule:nonzero;stroke:none;stroke-width:0.26458332"
         d="m 108.91306,187.97041 c 0,-0.35983 0.10584,-0.65616 0.33867,-0.88899 0.23283,-0.23283 0.55033,-0.33867 0.97366,-0.33867 0.40216,0 0.71966,0.10584 0.97366,0.33867 0.23283,0.23283 0.33866,0.52916 0.33866,0.88899 v 0.0635 c 0,0.35983 -0.10583,0.65616 -0.33866,0.889 -0.23284,0.23283 -0.5715,0.33866 -0.97366,0.33866 -0.42333,0 -0.74083,-0.10583 -0.97366,-0.33866 -0.23283,-0.23284 -0.33867,-0.52917 -0.33867,-0.889 z m 0.74083,0.0635 c 0,0.21167 0.0423,0.381 0.14817,0.52917 0.0847,0.12699 0.23283,0.19049 0.42333,0.19049 0.1905,0 0.33866,-0.0635 0.42333,-0.19049 0.0847,-0.14817 0.14816,-0.3175 0.14816,-0.52917 v -0.0635 c 0,-0.21166 -0.0635,-0.38099 -0.14816,-0.52916 -0.0847,-0.127 -0.23283,-0.1905 -0.42333,-0.1905 -0.1905,0 -0.33867,0.0635 -0.42333,0.1905 -0.10584,0.14817 -0.14817,0.3175 -0.14817,0.52916 z"
         id="path73" />
      <path
         inkscape:connector-curvature="0"
         style="fill:#b39361;fill-opacity:1;fill-rule:nonzero;stroke:none;stroke-width:0.26458332"
         d="m 112.70187,186.78509 0.0212,0.33866 c 0.0847,-0.127 0.21166,-0.21166 0.33866,-0.29633 0.14817,-0.0635 0.29633,-0.0847 0.46567,-0.0847 0.27516,0 0.50799,0.0635 0.65616,0.23283 0.14816,0.14817 0.23283,0.381 0.23283,0.71966 v 1.52399 h -0.74083 v -1.52398 c 0,-0.16933 -0.0423,-0.27517 -0.127,-0.33867 -0.0635,-0.0847 -0.1905,-0.10583 -0.33867,-0.10583 -0.10583,0 -0.19049,0.0212 -0.27516,0.0423 -0.0635,0.0423 -0.14817,0.0847 -0.1905,0.14817 v 1.77798 h -0.76199 v -2.43414 z"
         id="path75" />
    </g>
  </g>
</svg>
