<?xml version="1.0" encoding="UTF-8" standalone="no"?>
<!-- Created with Inkscape (http://www.inkscape.org/) -->

<svg
   xmlns:dc="http://purl.org/dc/elements/1.1/"
   xmlns:cc="http://creativecommons.org/ns#"
   xmlns:rdf="http://www.w3.org/1999/02/22-rdf-syntax-ns#"
   xmlns:svg="http://www.w3.org/2000/svg"
   xmlns="http://www.w3.org/2000/svg"
   xmlns:xlink="http://www.w3.org/1999/xlink"
   xmlns:sodipodi="http://sodipodi.sourceforge.net/DTD/sodipodi-0.dtd"
   xmlns:inkscape="http://www.inkscape.org/namespaces/inkscape"
   width="6.8739996mm"
   height="6.8740001mm"
   viewBox="0 0 6.8739996 6.8740001"
   version="1.1"
   id="svg8"
   inkscape:version="0.92.4 (5da689c313, 2019-01-14)"
   sodipodi:docname="Icone mes projets.svg">
  <defs
     id="defs2">
    <linearGradient
       inkscape:collect="always"
       xlink:href="#linearGradient247"
       id="linearGradient249"
       x1="288.30865"
       y1="73.291748"
       x2="329.7052"
       y2="115.51043"
       gradientUnits="userSpaceOnUse"
       gradientTransform="matrix(1.3677671,0,0,1.2157928,-566.05367,-40.815916)" />
    <linearGradient
       inkscape:collect="always"
       id="linearGradient247">
      <stop
         style="stop-color:#ffdd55;stop-opacity:1"
         offset="0"
         id="stop243" />
      <stop
         style="stop-color:#eeffaa;stop-opacity:1"
         offset="1"
         id="stop245" />
    </linearGradient>
    <linearGradient
       inkscape:collect="always"
       xlink:href="#linearGradient257"
       id="linearGradient251"
       x1="296.23978"
       y1="80.908524"
       x2="322.3544"
       y2="110.06988"
       gradientUnits="userSpaceOnUse"
       gradientTransform="matrix(1.3677671,0,0,1.2157928,-566.05367,-40.815916)" />
    <linearGradient
       id="linearGradient257"
       inkscape:collect="always">
      <stop
         id="stop253"
         offset="0"
         style="stop-color:#80db22;stop-opacity:1" />
      <stop
         id="stop255"
         offset="1"
         style="stop-color:#aaffaa;stop-opacity:1" />
    </linearGradient>
  </defs>
  <sodipodi:namedview
     id="base"
     pagecolor="#ffffff"
     bordercolor="#666666"
     borderopacity="1.0"
     inkscape:pageopacity="0.0"
     inkscape:pageshadow="2"
     inkscape:zoom="0.35"
     inkscape:cx="-32.724062"
     inkscape:cy="312.99022"
     inkscape:document-units="mm"
     inkscape:current-layer="layer1"
     showgrid="false"
     fit-margin-top="0"
     fit-margin-left="0"
     fit-margin-right="0"
     fit-margin-bottom="0"
     showborder="false"
     inkscape:window-width="1280"
     inkscape:window-height="898"
     inkscape:window-x="-8"
     inkscape:window-y="-8"
     inkscape:window-maximized="1" />
  <metadata
     id="metadata5">
    <rdf:RDF>
      <cc:Work
         rdf:about="">
        <dc:format>image/svg+xml</dc:format>
        <dc:type
           rdf:resource="http://purl.org/dc/dcmitype/StillImage" />
        <dc:title></dc:title>
      </cc:Work>
    </rdf:RDF>
  </metadata>
  <g
     inkscape:label="Calque 1"
     inkscape:groupmode="layer"
     id="layer1"
     transform="translate(-114.49157,-224.77133)">
    <g
       transform="matrix(0.11891677,0,0,0.11891678,134.94814,219.02062)"
       id="g275">
      <ellipse
         ry="25.691166"
         rx="28.902567"
         id="circle5857-8-2"
         cy="74.050278"
         cx="-143.12166"
         style="fill:url(#linearGradient249);fill-opacity:1;stroke-width:1.36247981" />
      <path
         id="path5859-5-5"
         d="m -124.33499,74.050283 c 0,-9.891099 -9.53786,-17.726904 -20.95437,-16.570802 -8.67077,0.899191 -15.60739,7.065071 -16.47446,14.77242 -0.72256,5.908969 2.02318,11.175654 6.6476,14.51551 2.02317,1.541467 3.32378,3.725213 3.32378,6.165881 v 0.38537 h 17.34155 v -0.128461 c 0,-2.312207 1.15609,-4.624414 3.17928,-6.165881 4.19086,-3.082934 6.93662,-7.707348 6.93662,-12.974037 z"
         inkscape:connector-curvature="0"
         style="fill:url(#linearGradient251);fill-opacity:1;stroke-width:1.36247981" />
      <path
         id="path5861-1-5"
         d="m -133.58382,71.738078 -4.33539,-2.569116 c -0.43354,-0.256912 -1.1561,-0.256912 -1.58963,0 l -3.61283,2.055293 -3.4683,-2.055293 c -0.43355,-0.256912 -1.15611,-0.256912 -1.58965,0 l -4.33538,2.569116 c -0.28903,0.256912 -0.57805,0.513823 -0.57805,0.899191 0,0.385367 0,0.770735 0.28902,1.027646 l 5.49149,6.037424 v 13.616323 h 2.89026 V 79.188516 c 0,-0.256912 -0.14452,-0.513823 -0.28903,-0.770735 l -4.76892,-5.266689 2.16769,-1.284558 3.4683,2.055293 c 0.43354,0.256911 1.15611,0.256911 1.58965,0 l 3.46832,-2.055293 2.16769,1.284558 -4.76893,5.266689 c -0.14452,0.256912 -0.28903,0.513823 -0.28903,0.770735 v 14.130146 h 2.89027 V 79.702339 l 5.49147,-6.037424 c 0.28904,-0.256911 0.43354,-0.642279 0.28904,-1.027646 -0.14452,-0.385368 -0.28904,-0.770735 -0.57806,-0.899191 z"
         inkscape:connector-curvature="0"
         style="fill:#fff59d;stroke-width:1.36247981" />
      <ellipse
         ry="3.8536749"
         rx="4.3353848"
         id="circle5863-1-1"
         cy="102.31057"
         cx="-143.12166"
         style="fill:#5599ff;fill-opacity:1;stroke-width:1.36247981" />
      <path
         id="path5865-8-8"
         d="m -140.2314,103.59513 h -5.78053 c -3.17928,0 -5.78051,-2.31221 -5.78051,-5.138236 v -6.42279 h 17.34155 v 6.42279 c 0,2.826026 -2.60123,5.138236 -5.78051,5.138236 z"
         inkscape:connector-curvature="0"
         style="fill:#55ddff;stroke-width:1.36247981" />
      <g
         transform="matrix(1.4451283,0,0,1.2845583,-177.80474,45.790001)"
         id="g5871-9-9"
         style="fill:#5599ff;fill-opacity:1">
        <path
           style="fill:#5599ff;fill-opacity:1"
           id="path5867-7-3"
           d="m 30,41 -11.6,1.6 c 0.3,0.7 0.9,1.4 1.6,1.8 l 9.4,-1.3 C 29.8,42.5 30,41.8 30,41 Z"
           inkscape:connector-curvature="0" />
        <polygon
           style="fill:#5599ff;fill-opacity:1"
           id="polygon5869-2-3"
           points="18,40.7 30,39 30,37 18,38.7 " />
      </g>
    </g>
  </g>
</svg>
