<?xml version="1.0" encoding="UTF-8" standalone="no"?>
<!-- Created with Inkscape (http://www.inkscape.org/) -->

<svg
   xmlns:dc="http://purl.org/dc/elements/1.1/"
   xmlns:cc="http://creativecommons.org/ns#"
   xmlns:rdf="http://www.w3.org/1999/02/22-rdf-syntax-ns#"
   xmlns:svg="http://www.w3.org/2000/svg"
   xmlns="http://www.w3.org/2000/svg"
   xmlns:sodipodi="http://sodipodi.sourceforge.net/DTD/sodipodi-0.dtd"
   xmlns:inkscape="http://www.inkscape.org/namespaces/inkscape"
   width="25.251677mm"
   height="26.18297mm"
   viewBox="0 0 25.251677 26.18297"
   version="1.1"
   id="svg8"
   inkscape:version="0.92.4 (5da689c313, 2019-01-14)"
   sodipodi:docname="Icone Diaporama.svg">
  <defs
     id="defs2">
    <pattern
       y="0"
       x="0"
       height="6"
       width="6"
       patternUnits="userSpaceOnUse"
       id="EMFhbasepattern" />
  </defs>
  <sodipodi:namedview
     id="base"
     pagecolor="#ffffff"
     bordercolor="#666666"
     borderopacity="1.0"
     inkscape:pageopacity="0.0"
     inkscape:pageshadow="2"
     inkscape:zoom="1"
     inkscape:cx="49.719649"
     inkscape:cy="1.479622"
     inkscape:document-units="mm"
     inkscape:current-layer="layer1"
     showgrid="false"
     inkscape:window-width="1280"
     inkscape:window-height="898"
     inkscape:window-x="-8"
     inkscape:window-y="-8"
     inkscape:window-maximized="1"
     inkscape:showpageshadow="false"
     showborder="false"
     fit-margin-top="0"
     fit-margin-left="0"
     fit-margin-right="0"
     fit-margin-bottom="0" />
  <metadata
     id="metadata5">
    <rdf:RDF>
      <cc:Work
         rdf:about="">
        <dc:format>image/svg+xml</dc:format>
        <dc:type
           rdf:resource="http://purl.org/dc/dcmitype/StillImage" />
        <dc:title></dc:title>
      </cc:Work>
    </rdf:RDF>
  </metadata>
  <g
     inkscape:label="Calque 1"
     inkscape:groupmode="layer"
     id="layer1"
     transform="translate(-92.678343,-133.62518)">
    <g
       id="g86">
      <path
         inkscape:connector-curvature="0"
         style="fill:#b39361;fill-opacity:1;fill-rule:nonzero;stroke:none;stroke-width:0.26458332"
         d="M 114.86084,133.62518 H 95.72632 c -0.190499,0 -0.338664,0.16933 -0.338664,0.35983 v 19.13453 c 0,0.19049 0.148165,0.35983 0.338664,0.35983 h 19.13452 c 0.21167,0 0.35984,-0.16934 0.35984,-0.35983 v -19.13453 c 0,-0.1905 -0.14817,-0.35983 -0.35984,-0.35983 z m -0.35983,19.13453 H 96.086151 v -18.41487 h 18.414859 z"
         id="path31" />
      <path
         inkscape:connector-curvature="0"
         style="fill:#b39361;fill-opacity:1;fill-rule:nonzero;stroke:none;stroke-width:0.26458332"
         d="m 97.842971,150.87589 c 0.02117,0.0423 0.04233,0.0847 0.08467,0.10583 0,0.0212 0,0.0423 0.02117,0.0423 0.0635,0.0423 0.126999,0.0635 0.169332,0.0635 h 14.350897 c 0.0423,0 0.0635,-0.0423 0.10583,-0.0423 0.0212,-0.0212 0.0635,0 0.0847,-0.0212 0.0212,0 0.0212,-0.0212 0.0212,-0.0423 0.0423,-0.0212 0.0635,-0.0635 0.0847,-0.10583 0.0212,-0.0423 0.0423,-0.0635 0.0423,-0.10584 0,-0.0212 0.0212,-0.0423 0.0212,-0.0423 v -14.35089 c 0,-0.21167 -0.14816,-0.35983 -0.35983,-0.35983 H 98.118136 c -0.190499,0 -0.338665,0.14816 -0.338665,0.35983 v 14.35089 c 0,0.0212 0,0.0212 0.02117,0.0423 0,0.0423 0.02117,0.0847 0.04233,0.10583 z m 0.91016,-0.508 2.963309,-4.9318 0.93133,1.56632 2.03198,3.36548 z m 6.752119,0 -2.13782,-3.55597 3.13264,-4.9953 5.33396,8.55127 z m -7.027284,-13.63123 h 13.652394 v 12.74224 l -5.33396,-8.50894 c -0.12699,-0.21167 -0.46566,-0.21167 -0.59266,0 l -3.23847,5.16463 -0.9525,-1.56632 c -0.0635,-0.10584 -0.16933,-0.1905 -0.29633,-0.1905 -0.127,0 -0.23283,0.0847 -0.29633,0.1905 l -2.942144,4.86829 z"
         id="path33" />
      <path
         inkscape:connector-curvature="0"
         style="fill:#b39361;fill-opacity:1;fill-rule:nonzero;stroke:none;stroke-width:0.26458332"
         d="m 103.17693,139.10731 c 0,-0.86783 -0.69849,-1.56633 -1.54515,-1.56633 -0.86783,0 -1.56633,0.6985 -1.56633,1.56633 0,0.84666 0.6985,1.54515 1.56633,1.54515 0.84666,0 1.54515,-0.69849 1.54515,-1.54515 z m -2.39181,0 c 0,-0.46567 0.38099,-0.84666 0.84666,-0.84666 0.46566,0 0.82549,0.38099 0.82549,0.84666 0,0.46566 -0.35983,0.82549 -0.82549,0.82549 -0.46567,0 -0.84666,-0.35983 -0.84666,-0.82549 z"
         id="path35" />
      <path
         inkscape:connector-curvature="0"
         style="fill:#b39361;fill-opacity:1;fill-rule:nonzero;stroke:none;stroke-width:0.26458332"
         d="m 92.678343,158.87683 v -3.28081 H 93.9695 c 0.465663,0 0.825494,0.127 1.121825,0.38099 0.317498,0.254 0.465663,0.59267 0.465663,0.99483 v 0.52916 c 0,0.40217 -0.148165,0.74083 -0.465663,0.99483 -0.296331,0.254 -0.656162,0.381 -1.121825,0.381 z m 0.761994,-2.77282 v 2.26482 h 0.48683 c 0.275164,0 0.486829,-0.0847 0.634995,-0.23283 0.148166,-0.16933 0.232832,-0.381 0.232832,-0.635 v -0.55033 c 0,-0.25399 -0.08467,-0.44449 -0.232832,-0.61382 -0.148166,-0.16934 -0.359831,-0.23284 -0.634995,-0.23284 z"
         id="path37" />
      <path
         inkscape:connector-curvature="0"
         style="fill:#b39361;fill-opacity:1;fill-rule:nonzero;stroke:none;stroke-width:0.26458332"
         d="m 96.869312,158.87683 h -0.740828 v -2.43415 h 0.740828 z m 0,-3.02681 h -0.740828 v -0.48683 h 0.740828 z"
         id="path39" />
      <path
         inkscape:connector-curvature="0"
         style="fill:#b39361;fill-opacity:1;fill-rule:nonzero;stroke:none;stroke-width:0.26458332"
         d="m 99.134128,158.87683 c -0.02117,-0.0635 -0.0635,-0.10584 -0.08467,-0.16934 0,-0.0635 -0.02117,-0.12699 -0.04233,-0.19049 -0.0635,0.10583 -0.169332,0.21166 -0.296331,0.29633 -0.126999,0.0635 -0.275165,0.10583 -0.444497,0.10583 -0.296331,0 -0.529163,-0.0635 -0.677328,-0.1905 -0.169332,-0.127 -0.232832,-0.3175 -0.232832,-0.55033 0,-0.23283 0.08467,-0.42333 0.296331,-0.55033 0.211666,-0.127 0.529163,-0.1905 0.931327,-0.1905 h 0.42333 v -0.19049 c 0,-0.127 -0.04233,-0.21167 -0.105832,-0.27517 -0.0635,-0.0635 -0.169332,-0.10583 -0.317498,-0.10583 -0.126999,0 -0.211665,0.0212 -0.275165,0.0847 -0.0635,0.0423 -0.105832,0.127 -0.105832,0.21166 H 97.48314 v -0.0212 c -0.02117,-0.1905 0.08467,-0.38099 0.296331,-0.52916 0.211666,-0.14817 0.507997,-0.23283 0.846661,-0.23283 0.338664,0 0.613829,0.0847 0.825494,0.23283 0.211665,0.14817 0.317497,0.35983 0.317497,0.635 v 0.99482 c 0,0.127 0,0.23283 0.02117,0.33867 0.02117,0.10583 0.04233,0.19049 0.08467,0.29633 z m -0.698495,-0.4445 c 0.148166,0 0.253999,-0.0212 0.359831,-0.0847 0.105833,-0.0635 0.169332,-0.127 0.211665,-0.1905 v -0.35984 h -0.42333 c -0.169332,0 -0.275165,0.0423 -0.359831,0.10584 -0.08467,0.0847 -0.126999,0.16933 -0.126999,0.254 0,0.0847 0.02117,0.14816 0.08467,0.21166 0.0635,0.0423 0.148166,0.0635 0.253998,0.0635 z"
         id="path41" />
      <path
         inkscape:connector-curvature="0"
         style="fill:#b39361;fill-opacity:1;fill-rule:nonzero;stroke:none;stroke-width:0.26458332"
         d="m 102.83827,157.71267 c 0,0.381 -0.0847,0.65616 -0.27517,0.88899 -0.1905,0.21167 -0.46566,0.3175 -0.80432,0.3175 -0.14817,0 -0.27517,-0.0212 -0.381,-0.0635 -0.127,-0.0423 -0.21167,-0.127 -0.29633,-0.21167 v 1.16416 h -0.762 v -3.36547 h 0.67733 l 0.0635,0.27516 c 0.0635,-0.10583 0.16933,-0.1905 0.29633,-0.23283 0.10583,-0.0635 0.23283,-0.10583 0.40217,-0.10583 0.33866,0 0.61382,0.127 0.80432,0.35983 0.1905,0.23283 0.27517,0.55033 0.27517,0.93132 z m -0.74083,-0.0423 c 0,-0.23283 -0.0423,-0.40216 -0.127,-0.55033 -0.10583,-0.14817 -0.23283,-0.21167 -0.40216,-0.21167 -0.127,0 -0.21167,0.0212 -0.29633,0.0635 -0.0847,0.0212 -0.14817,0.0847 -0.1905,0.16934 v 1.05832 c 0.0423,0.0847 0.10583,0.127 0.1905,0.16933 0.0847,0.0212 0.16933,0.0423 0.29633,0.0423 0.16933,0 0.31749,-0.0635 0.40216,-0.19049 0.0847,-0.10584 0.127,-0.27517 0.127,-0.508 z"
         id="path43" />
      <path
         inkscape:connector-curvature="0"
         style="fill:#b39361;fill-opacity:1;fill-rule:nonzero;stroke:none;stroke-width:0.26458332"
         d="m 103.1981,157.628 c 0,-0.35983 0.10583,-0.65616 0.33866,-0.88899 0.23283,-0.23283 0.55033,-0.35983 0.97366,-0.35983 0.40217,0 0.71966,0.127 0.95249,0.35983 0.254,0.23283 0.35984,0.52916 0.35984,0.88899 v 0.0423 c 0,0.381 -0.10584,0.67733 -0.35984,0.91016 -0.21166,0.23283 -0.55032,0.33867 -0.95249,0.33867 -0.42333,0 -0.74083,-0.10584 -0.97366,-0.33867 -0.23283,-0.23283 -0.33866,-0.52916 -0.33866,-0.91016 z m 0.74083,0.0423 c 0,0.23283 0.0423,0.40217 0.12699,0.55033 0.10584,0.127 0.254,0.1905 0.4445,0.1905 0.1905,0 0.33867,-0.0635 0.42333,-0.1905 0.0847,-0.14816 0.14817,-0.3175 0.14817,-0.55033 v -0.0423 c 0,-0.21166 -0.0635,-0.38099 -0.14817,-0.52916 -0.0847,-0.127 -0.23283,-0.21167 -0.42333,-0.21167 -0.1905,0 -0.33866,0.0847 -0.4445,0.21167 -0.0847,0.14817 -0.12699,0.3175 -0.12699,0.52916 z"
         id="path45" />
      <path
         inkscape:connector-curvature="0"
         style="fill:#b39361;fill-opacity:1;fill-rule:nonzero;stroke:none;stroke-width:0.26458332"
         d="m 107.7489,156.99301 h -0.27517 c -0.10583,0 -0.1905,0.0212 -0.27516,0.0635 -0.0635,0.0423 -0.127,0.10583 -0.16933,0.16933 v 1.65099 h -0.74083 v -2.43415 h 0.69849 l 0.0423,0.35983 c 0.0635,-0.127 0.14817,-0.23283 0.23283,-0.29633 0.10584,-0.0847 0.23284,-0.127 0.381,-0.127 0.0212,0 0.0635,0.0212 0.0847,0.0212 0.0423,0 0.0847,0 0.10583,0.0212 z"
         id="path47" />
      <path
         inkscape:connector-curvature="0"
         style="fill:#b39361;fill-opacity:1;fill-rule:nonzero;stroke:none;stroke-width:0.26458332"
         d="m 109.78088,158.87683 c -0.0423,-0.0635 -0.0635,-0.10584 -0.0847,-0.16934 -0.0212,-0.0635 -0.0212,-0.12699 -0.0423,-0.19049 -0.0847,0.10583 -0.16933,0.21166 -0.29633,0.29633 -0.127,0.0635 -0.27516,0.10583 -0.46566,0.10583 -0.27517,0 -0.508,-0.0635 -0.67733,-0.1905 -0.14817,-0.127 -0.23283,-0.3175 -0.23283,-0.55033 0,-0.23283 0.10583,-0.42333 0.3175,-0.55033 0.21166,-0.127 0.52916,-0.1905 0.93132,-0.1905 h 0.42333 v -0.19049 c 0,-0.127 -0.0423,-0.21167 -0.10583,-0.27517 -0.0847,-0.0635 -0.1905,-0.10583 -0.3175,-0.10583 -0.127,0 -0.21166,0.0212 -0.29633,0.0847 -0.0635,0.0423 -0.0847,0.127 -0.0847,0.21166 h -0.74083 v -0.0212 c 0,-0.1905 0.10584,-0.38099 0.3175,-0.52916 0.21167,-0.14817 0.48683,-0.23283 0.84666,-0.23283 0.33867,0 0.61383,0.0847 0.80433,0.23283 0.21166,0.14817 0.3175,0.35983 0.3175,0.635 v 0.99482 c 0,0.127 0.0212,0.23283 0.0423,0.33867 0.0212,0.10583 0.0423,0.19049 0.0847,0.29633 z m -0.69849,-0.4445 c 0.127,0 0.254,-0.0212 0.35983,-0.0847 0.10583,-0.0635 0.16933,-0.127 0.21166,-0.1905 v -0.35983 h -0.42333 c -0.16933,0 -0.29633,0.0423 -0.35983,0.10583 -0.0847,0.0847 -0.127,0.16933 -0.127,0.254 0,0.0847 0.0212,0.14817 0.0847,0.21167 0.0635,0.0423 0.14817,0.0635 0.254,0.0635 z"
         id="path49" />
      <path
         inkscape:connector-curvature="0"
         style="fill:#b39361;fill-opacity:1;fill-rule:nonzero;stroke:none;stroke-width:0.26458332"
         d="m 111.6647,156.44268 0.0423,0.3175 c 0.0847,-0.127 0.1905,-0.21167 0.3175,-0.27517 0.14817,-0.0635 0.29633,-0.10583 0.48683,-0.10583 0.16933,0 0.3175,0.0423 0.4445,0.10583 0.127,0.0847 0.23283,0.1905 0.29633,0.3175 0.0847,-0.127 0.1905,-0.23283 0.33866,-0.29633 0.127,-0.0847 0.29633,-0.127 0.48683,-0.127 0.27517,0 0.48683,0.0847 0.635,0.254 0.16933,0.16933 0.25399,0.42333 0.25399,0.76199 v 1.48166 h -0.76199 v -1.48166 c 0,-0.1905 -0.0423,-0.3175 -0.10583,-0.381 -0.0635,-0.0847 -0.16933,-0.10583 -0.29633,-0.10583 -0.10583,0 -0.21167,0.0212 -0.27517,0.0635 -0.0847,0.0423 -0.14816,0.0847 -0.19049,0.16933 0,0.0212 0,0.0423 0,0.0635 0,0.0212 0,0.0423 0,0.0635 v 1.60866 H 112.596 v -1.48166 c 0,-0.1905 -0.0423,-0.31749 -0.10583,-0.38099 -0.0847,-0.0847 -0.16934,-0.10584 -0.3175,-0.10584 -0.10583,0 -0.1905,0 -0.27517,0.0423 -0.0635,0.0423 -0.127,0.0847 -0.16933,0.14817 v 1.77799 h -0.76199 v -2.43415 z"
         id="path51" />
      <path
         inkscape:connector-curvature="0"
         style="fill:#b39361;fill-opacity:1;fill-rule:nonzero;stroke:none;stroke-width:0.26458332"
         d="m 117.16799,158.87683 c -0.0212,-0.0635 -0.0423,-0.10584 -0.0635,-0.16934 -0.0212,-0.0635 -0.0423,-0.12699 -0.0423,-0.19049 -0.0847,0.10583 -0.19049,0.21166 -0.31749,0.29633 -0.127,0.0635 -0.27517,0.10583 -0.4445,0.10583 -0.29633,0 -0.508,-0.0635 -0.67733,-0.1905 -0.14816,-0.127 -0.23283,-0.3175 -0.23283,-0.55033 0,-0.23283 0.10583,-0.42333 0.3175,-0.55033 0.21166,-0.127 0.50799,-0.1905 0.91016,-0.1905 h 0.42333 v -0.19049 c 0,-0.127 -0.0212,-0.21167 -0.10583,-0.27517 -0.0635,-0.0635 -0.16934,-0.10583 -0.29634,-0.10583 -0.12699,0 -0.23283,0.0212 -0.29633,0.0847 -0.0635,0.0423 -0.0847,0.127 -0.0847,0.21166 h -0.74082 v -0.0212 c -0.0212,-0.1905 0.0847,-0.38099 0.31749,-0.52916 0.21167,-0.14817 0.48683,-0.23283 0.84666,-0.23283 0.33867,0 0.59267,0.0847 0.80433,0.23283 0.21167,0.14817 0.3175,0.35983 0.3175,0.635 v 0.99482 c 0,0.127 0,0.23283 0.0212,0.33867 0.0212,0.10583 0.0635,0.19049 0.10583,0.29633 z m -0.67732,-0.4445 c 0.127,0 0.25399,-0.0212 0.33866,-0.0847 0.10583,-0.0635 0.1905,-0.127 0.21167,-0.1905 v -0.35983 h -0.42333 c -0.14817,0 -0.27517,0.0423 -0.35984,0.10583 -0.0847,0.0847 -0.12699,0.16933 -0.12699,0.254 0,0.0847 0.0423,0.14817 0.10583,0.21167 0.0635,0.0423 0.14816,0.0635 0.254,0.0635 z"
         id="path53" />
    </g>
  </g>
</svg>
