<?xml version="1.0" encoding="UTF-8" standalone="no"?>
<!-- Created with Inkscape (http://www.inkscape.org/) -->

<svg
   xmlns:dc="http://purl.org/dc/elements/1.1/"
   xmlns:cc="http://creativecommons.org/ns#"
   xmlns:rdf="http://www.w3.org/1999/02/22-rdf-syntax-ns#"
   xmlns:svg="http://www.w3.org/2000/svg"
   xmlns="http://www.w3.org/2000/svg"
   xmlns:sodipodi="http://sodipodi.sourceforge.net/DTD/sodipodi-0.dtd"
   xmlns:inkscape="http://www.inkscape.org/namespaces/inkscape"
   width="39.13578mm"
   height="31.604351mm"
   viewBox="0 0 39.13578 31.604351"
   version="1.1"
   id="svg8"
   inkscape:version="0.92.4 (5da689c313, 2019-01-14)"
   sodipodi:docname="Icone A quoi va servir le financement.svg">
  <defs
     id="defs2">
    <pattern
       y="0"
       x="0"
       height="6"
       width="6"
       patternUnits="userSpaceOnUse"
       id="EMFhbasepattern" />
  </defs>
  <sodipodi:namedview
     id="base"
     pagecolor="#ffffff"
     bordercolor="#666666"
     borderopacity="1.0"
     inkscape:pageopacity="0.0"
     inkscape:pageshadow="2"
     inkscape:zoom="1"
     inkscape:cx="121.95738"
     inkscape:cy="116.52915"
     inkscape:document-units="mm"
     inkscape:current-layer="layer1"
     showgrid="false"
     inkscape:window-width="1280"
     inkscape:window-height="898"
     inkscape:window-x="-8"
     inkscape:window-y="-8"
     inkscape:window-maximized="1"
     inkscape:showpageshadow="false"
     fit-margin-top="0"
     fit-margin-left="0"
     fit-margin-right="0"
     fit-margin-bottom="0"
     showborder="false" />
  <metadata
     id="metadata5">
    <rdf:RDF>
      <cc:Work
         rdf:about="">
        <dc:format>image/svg+xml</dc:format>
        <dc:type
           rdf:resource="http://purl.org/dc/dcmitype/StillImage" />
        <dc:title></dc:title>
      </cc:Work>
    </rdf:RDF>
  </metadata>
  <g
     inkscape:label="Calque 1"
     inkscape:groupmode="layer"
     id="layer1"
     transform="translate(-73.565444,-173.77699)">
    <g
       id="g1398"
       transform="translate(-89.437427,144.11677)">
      <g
         style="fill:#b39361"
         id="g672"
         transform="matrix(0.98774266,0,0,0.86854948,128.98868,-422.49882)">
        <path
           id="path634"
           d="m 49.2,542.618 h -4.588 c -0.227,0 -0.41,0.184 -0.41,0.408 0,0.226 0.184,0.409 0.41,0.409 H 49.2 c 0.227,0 0.41,-0.184 0.41,-0.409 0,-0.224 -0.183,-0.408 -0.41,-0.408 z"
           inkscape:connector-curvature="0"
           style="fill:#b39361" />
        <path
           id="path636"
           d="m 49.2,539.864 h -4.588 c -0.227,0 -0.41,0.184 -0.41,0.41 0,0.225 0.184,0.409 0.41,0.409 H 49.2 c 0.227,0 0.41,-0.185 0.41,-0.409 0,-0.226 -0.183,-0.41 -0.41,-0.41 z"
           inkscape:connector-curvature="0"
           style="fill:#b39361" />
        <path
           id="path638"
           d="m 49.2,537.11 h -4.588 c -0.227,0 -0.41,0.184 -0.41,0.41 0,0.226 0.184,0.409 0.41,0.409 H 49.2 c 0.227,0 0.41,-0.184 0.41,-0.409 0,-0.226 -0.183,-0.41 -0.41,-0.41 z"
           inkscape:connector-curvature="0"
           style="fill:#b39361" />
        <path
           id="path640"
           d="m 49.2,534.356 h -4.588 c -0.227,0 -0.41,0.185 -0.41,0.41 0,0.227 0.184,0.41 0.41,0.41 H 49.2 c 0.227,0 0.41,-0.184 0.41,-0.41 0,-0.225 -0.183,-0.41 -0.41,-0.41 z"
           inkscape:connector-curvature="0"
           style="fill:#b39361" />
        <path
           id="path642"
           d="m 56.541,542.618 h -4.587 c -0.227,0 -0.41,0.184 -0.41,0.408 0,0.226 0.184,0.409 0.41,0.409 h 4.587 c 0.227,0 0.411,-0.184 0.411,-0.409 -10e-4,-0.224 -0.184,-0.408 -0.411,-0.408 z"
           inkscape:connector-curvature="0"
           style="fill:#b39361" />
        <path
           id="path644"
           d="m 56.541,539.864 h -4.587 c -0.227,0 -0.41,0.184 -0.41,0.41 0,0.225 0.184,0.409 0.41,0.409 h 4.587 c 0.227,0 0.411,-0.185 0.411,-0.409 -10e-4,-0.226 -0.184,-0.41 -0.411,-0.41 z"
           inkscape:connector-curvature="0"
           style="fill:#b39361" />
        <path
           id="path646"
           d="m 56.541,537.11 h -4.587 c -0.227,0 -0.41,0.184 -0.41,0.41 0,0.226 0.184,0.409 0.41,0.409 h 4.587 c 0.227,0 0.411,-0.184 0.411,-0.409 -10e-4,-0.226 -0.184,-0.41 -0.411,-0.41 z"
           inkscape:connector-curvature="0"
           style="fill:#b39361" />
        <path
           id="path648"
           d="m 56.541,534.356 h -4.587 c -0.227,0 -0.41,0.185 -0.41,0.41 0,0.227 0.184,0.41 0.41,0.41 h 4.587 c 0.227,0 0.411,-0.184 0.411,-0.41 -10e-4,-0.225 -0.184,-0.41 -0.411,-0.41 z"
           inkscape:connector-curvature="0"
           style="fill:#b39361" />
        <path
           id="path650"
           d="m 56.541,531.604 h -4.587 c -0.227,0 -0.41,0.185 -0.41,0.41 0,0.225 0.184,0.409 0.41,0.409 h 4.587 c 0.227,0 0.411,-0.184 0.411,-0.409 0,-0.225 -0.184,-0.41 -0.411,-0.41 z"
           inkscape:connector-curvature="0"
           style="fill:#b39361" />
        <path
           id="path652"
           d="m 56.541,528.853 h -4.587 c -0.227,0 -0.41,0.184 -0.41,0.409 0,0.225 0.184,0.409 0.41,0.409 h 4.587 c 0.227,0 0.411,-0.184 0.411,-0.409 0,-0.225 -0.184,-0.409 -0.411,-0.409 z"
           inkscape:connector-curvature="0"
           style="fill:#b39361" />
        <path
           id="path654"
           d="m 56.541,526.098 h -4.587 c -0.227,0 -0.41,0.185 -0.41,0.409 0,0.227 0.184,0.41 0.41,0.41 h 4.587 c 0.227,0 0.411,-0.184 0.411,-0.41 -10e-4,-0.225 -0.184,-0.409 -0.411,-0.409 z"
           inkscape:connector-curvature="0"
           style="fill:#b39361" />
        <path
           id="path656"
           d="m 56.541,523.343 h -4.587 c -0.227,0 -0.41,0.186 -0.41,0.412 0,0.225 0.184,0.409 0.41,0.409 h 4.587 c 0.227,0 0.411,-0.185 0.411,-0.409 -10e-4,-0.227 -0.184,-0.412 -0.411,-0.412 z"
           inkscape:connector-curvature="0"
           style="fill:#b39361" />
        <path
           id="path658"
           d="m 56.541,520.591 h -4.587 c -0.227,0 -0.41,0.184 -0.41,0.41 0,0.225 0.184,0.408 0.41,0.408 h 4.587 c 0.227,0 0.411,-0.184 0.411,-0.408 -10e-4,-0.227 -0.184,-0.41 -0.411,-0.41 z"
           inkscape:connector-curvature="0"
           style="fill:#b39361" />
        <path
           id="path660"
           d="m 63.882,542.62 h -4.588 c -0.227,0 -0.41,0.184 -0.41,0.408 0,0.226 0.183,0.41 0.41,0.41 h 4.588 c 0.226,0 0.41,-0.185 0.41,-0.41 0,-0.224 -0.184,-0.408 -0.41,-0.408 z"
           inkscape:connector-curvature="0"
           style="fill:#b39361" />
        <path
           id="path662"
           d="m 63.882,539.865 h -4.588 c -0.227,0 -0.41,0.184 -0.41,0.411 0,0.225 0.183,0.409 0.41,0.409 h 4.588 c 0.226,0 0.41,-0.185 0.41,-0.409 0,-0.227 -0.184,-0.411 -0.41,-0.411 z"
           inkscape:connector-curvature="0"
           style="fill:#b39361" />
        <path
           id="path664"
           d="m 63.882,537.112 h -4.588 c -0.227,0 -0.41,0.185 -0.41,0.41 0,0.225 0.183,0.409 0.41,0.409 h 4.588 c 0.226,0 0.41,-0.185 0.41,-0.409 0,-0.225 -0.184,-0.41 -0.41,-0.41 z"
           inkscape:connector-curvature="0"
           style="fill:#b39361" />
        <path
           id="path666"
           d="m 63.882,534.358 h -4.588 c -0.227,0 -0.41,0.185 -0.41,0.41 0,0.227 0.183,0.41 0.41,0.41 h 4.588 c 0.226,0 0.41,-0.184 0.41,-0.41 0,-0.225 -0.184,-0.41 -0.41,-0.41 z"
           inkscape:connector-curvature="0"
           style="fill:#b39361" />
        <path
           id="path668"
           d="m 63.882,531.605 h -4.588 c -0.227,0 -0.41,0.185 -0.41,0.41 0,0.225 0.183,0.409 0.41,0.409 h 4.588 c 0.226,0 0.41,-0.184 0.41,-0.409 0,-0.225 -0.184,-0.41 -0.41,-0.41 z"
           inkscape:connector-curvature="0"
           style="fill:#b39361" />
        <path
           id="path670"
           d="m 63.882,528.853 h -4.588 c -0.227,0 -0.41,0.184 -0.41,0.409 0,0.225 0.183,0.409 0.41,0.409 h 4.588 c 0.226,0 0.41,-0.184 0.41,-0.409 0,-0.225 -0.184,-0.409 -0.41,-0.409 z"
           inkscape:connector-curvature="0"
           style="fill:#b39361" />
      </g>
      <text
         xml:space="preserve"
         style="font-style:normal;font-variant:normal;font-weight:bold;font-stretch:normal;font-size:4.93888903px;line-height:1.25;font-family:Roboto;-inkscape-font-specification:'Roboto Bold';letter-spacing:0px;word-spacing:0px;fill:#b39361;fill-opacity:1;stroke:none;stroke-width:0.24122888"
         x="152.47398"
         y="59.258434"
         id="text823-8-9-6-2-2-7-5-2"
         transform="scale(1.0688508,0.93558427)"><tspan
           sodipodi:role="line"
           id="tspan821-9-0-0-1-6-2-2-7"
           x="152.47398"
           y="59.258434"
           style="font-style:normal;font-variant:normal;font-weight:bold;font-stretch:normal;font-size:4.93888903px;font-family:Roboto;-inkscape-font-specification:'Roboto Bold';fill:#b39361;stroke-width:0.24122888">A quoi va servir </tspan><tspan
           id="tspan1373"
           sodipodi:role="line"
           x="152.47398"
           y="65.432045"
           style="font-style:normal;font-variant:normal;font-weight:bold;font-stretch:normal;font-size:4.93888903px;font-family:Roboto;-inkscape-font-specification:'Roboto Bold';fill:#b39361;stroke-width:0.24122888">le financement ?</tspan></text>
    </g>
  </g>
</svg>
