<?xml version="1.0" encoding="UTF-8" standalone="no"?>
<!-- Created with Inkscape (http://www.inkscape.org/) -->

<svg
   xmlns:dc="http://purl.org/dc/elements/1.1/"
   xmlns:cc="http://creativecommons.org/ns#"
   xmlns:rdf="http://www.w3.org/1999/02/22-rdf-syntax-ns#"
   xmlns:svg="http://www.w3.org/2000/svg"
   xmlns="http://www.w3.org/2000/svg"
   xmlns:sodipodi="http://sodipodi.sourceforge.net/DTD/sodipodi-0.dtd"
   xmlns:inkscape="http://www.inkscape.org/namespaces/inkscape"
   width="19.843756mm"
   height="31.365808mm"
   viewBox="0 0 19.843756 31.365808"
   version="1.1"
   id="svg8"
   inkscape:version="0.92.4 (5da689c313, 2019-01-14)"
   sodipodi:docname="Icone Impacts Positifs.svg">
  <defs
     id="defs2">
    <pattern
       y="0"
       x="0"
       height="6"
       width="6"
       patternUnits="userSpaceOnUse"
       id="EMFhbasepattern" />
  </defs>
  <sodipodi:namedview
     id="base"
     pagecolor="#ffffff"
     bordercolor="#666666"
     borderopacity="1.0"
     inkscape:pageopacity="0.0"
     inkscape:pageshadow="2"
     inkscape:zoom="1"
     inkscape:cx="72.50001"
     inkscape:cy="69.078372"
     inkscape:document-units="mm"
     inkscape:current-layer="layer1"
     showgrid="false"
     inkscape:window-width="1280"
     inkscape:window-height="898"
     inkscape:window-x="-8"
     inkscape:window-y="-8"
     inkscape:window-maximized="1"
     inkscape:showpageshadow="false"
     showborder="false"
     fit-margin-top="0"
     fit-margin-left="0"
     fit-margin-right="0"
     fit-margin-bottom="0" />
  <metadata
     id="metadata5">
    <rdf:RDF>
      <cc:Work
         rdf:about="">
        <dc:format>image/svg+xml</dc:format>
        <dc:type
           rdf:resource="http://purl.org/dc/dcmitype/StillImage" />
        <dc:title></dc:title>
      </cc:Work>
    </rdf:RDF>
  </metadata>
  <g
     inkscape:label="Calque 1"
     inkscape:groupmode="layer"
     id="layer1"
     transform="translate(-86.651039,-161.46085)">
    <g
       id="g442"
       transform="translate(-31.632102,131.79673)">
      <g
         transform="translate(63.591926,-81.988181)"
         id="g419">
        <path
           inkscape:connector-curvature="0"
           style="fill:#f36d25;stroke-width:0.02772205"
           d="m 63.938201,131.47339 c -0.34816,-0.0268 -0.751156,-0.0761 -0.769152,-0.094 -0.0062,-0.006 0.167638,-0.96216 0.386418,-2.12425 l 0.397781,-2.11287 0.678586,-0.007 c 0.373222,-0.004 0.70405,-0.0153 0.735172,-0.0259 0.05451,-0.0186 0.07135,0.059 0.458109,2.11011 l 0.401522,2.12942 -0.07001,0.0193 c -0.319691,0.088 -1.631382,0.15009 -2.21843,0.10493 z"
           id="path374" />
        <path
           inkscape:connector-curvature="0"
           style="fill:#e11484;stroke-width:0.02772205"
           d="m 62.196689,131.19417 c -0.717773,-0.18657 -1.371483,-0.42996 -2.009913,-0.74835 -0.216126,-0.10778 -0.415826,-0.21273 -0.443781,-0.23322 -0.04729,-0.0347 0.02594,-0.16149 1.051187,-1.82061 0.606108,-0.98085 1.120108,-1.81152 1.142223,-1.84594 0.0402,-0.0626 0.04022,-0.0626 0.126981,-0.01 0.161545,0.0988 0.695064,0.31219 0.994111,0.39763 0.26934,0.0769 0.296177,0.0905 0.283856,0.14309 -0.0075,0.032 -0.181992,0.95631 -0.387796,2.05412 -0.43724,2.33236 -0.40099,2.14904 -0.42443,2.14643 -0.01022,-0.001 -0.159821,-0.0388 -0.332438,-0.0836 z"
           id="path372" />
        <path
           inkscape:connector-curvature="0"
           style="fill:#8f1838;stroke-width:0.02772205"
           d="m 66.821247,131.20997 c 0,-0.008 -0.175303,-0.9467 -0.389563,-2.08612 -0.21426,-1.13942 -0.392025,-2.08748 -0.395033,-2.10681 -0.0034,-0.0219 0.120426,-0.0773 0.32719,-0.14659 0.182962,-0.0613 0.483468,-0.18415 0.667789,-0.273 l 0.335131,-0.16156 1.128954,1.82907 c 0.620926,1.00599 1.123349,1.84368 1.116496,1.86154 -0.0177,0.0461 -0.831687,0.45922 -1.210832,0.6145 -0.674929,0.27642 -1.580132,0.54508 -1.580132,0.46897 z"
           id="path370" />
        <path
           inkscape:connector-curvature="0"
           style="fill:#f99d26;stroke-width:0.02772205"
           d="m 58.846704,129.63655 c -0.332291,-0.23611 -0.759208,-0.58865 -1.097456,-0.90627 -0.280648,-0.26352 -0.831979,-0.8803 -0.819335,-0.91658 0.0088,-0.0252 3.392181,-2.60506 3.416446,-2.60506 0.0074,0 0.155295,0.14034 0.328741,0.31188 0.173445,0.17153 0.416633,0.38672 0.540417,0.47821 0.123784,0.0915 0.222545,0.17341 0.21947,0.18205 -0.02764,0.0777 -2.257811,3.6554 -2.278762,3.65566 -0.01524,1.6e-4 -0.154531,-0.0898 -0.309521,-0.19989 z"
           id="path368" />
        <path
           inkscape:connector-curvature="0"
           style="fill:#fdb713;stroke-width:0.02772205"
           d="m 69.14752,128.15415 c -0.553012,-0.89578 -1.064743,-1.72382 -1.13718,-1.84007 l -0.131704,-0.21139 0.21443,-0.1689 c 0.117937,-0.0929 0.356471,-0.31427 0.530076,-0.49194 0.280283,-0.28685 0.321531,-0.31936 0.368171,-0.29023 0.06642,0.0415 3.319846,2.49206 3.369174,2.53776 0.02965,0.0275 -0.0058,0.0842 -0.188966,0.30199 -0.273726,0.32557 -0.792837,0.84735 -1.110533,1.11626 -0.259578,0.21971 -0.859303,0.67522 -0.888995,0.67522 -0.01045,0 -0.47146,-0.73291 -1.024473,-1.6287 z"
           id="path366" />
        <path
           inkscape:connector-curvature="0"
           style="fill:#cf8d2a;stroke-width:0.02772205"
           d="m 56.324391,127.01807 c -0.252597,-0.38672 -0.380186,-0.60923 -0.590495,-1.0298 -0.306035,-0.612 -0.610893,-1.40929 -0.547496,-1.43186 0.07594,-0.027 4.103581,-1.17746 4.12225,-1.17746 0.01118,0 0.04839,0.078 0.08267,0.17327 0.07896,0.21947 0.348419,0.76157 0.482609,0.97091 0.05642,0.088 0.09634,0.17014 0.0887,0.18249 -0.01554,0.0251 -3.389307,2.59179 -3.422263,2.60354 -0.01153,0.004 -0.108719,-0.12688 -0.215975,-0.29109 z"
           id="path364" />
        <path
           inkscape:connector-curvature="0"
           style="fill:#00aed9;stroke-width:0.02772205"
           d="m 71.050226,125.92916 c -0.929271,-0.70118 -1.701254,-1.28655 -1.715519,-1.30081 -0.0161,-0.0161 0.02239,-0.10838 0.101498,-0.24331 0.142809,-0.2436 0.344143,-0.66764 0.422113,-0.88903 0.02834,-0.0805 0.06453,-0.14132 0.08043,-0.13524 0.0159,0.006 0.953884,0.27693 2.084416,0.60188 l 2.055513,0.59082 -0.106385,0.30853 c -0.121471,0.35229 -0.314904,0.81411 -0.471182,1.12495 -0.221498,0.44055 -0.694033,1.21806 -0.739886,1.2174 -0.01178,-1.6e-4 -0.781725,-0.574 -1.710996,-1.27519 z"
           id="path362" />
        <path
           inkscape:connector-curvature="0"
           style="fill:#48773e;stroke-width:0.02772205"
           d="m 54.957289,123.85717 c -0.05504,-0.19438 -0.163625,-0.82342 -0.211746,-1.22673 -0.0455,-0.38128 -0.07411,-1.66483 -0.03792,-1.70102 0.008,-0.008 0.974806,0.0718 2.148424,0.17748 1.173615,0.10563 2.141457,0.19224 2.150756,0.19246 0.0093,1.6e-4 0.02366,0.20313 0.03191,0.45089 0.0083,0.24777 0.03689,0.57851 0.06363,0.73497 0.02674,0.15646 0.04357,0.28828 0.03739,0.29293 -0.01514,0.0114 -4.108836,1.18297 -4.133536,1.18297 -0.01071,0 -0.03272,-0.0468 -0.04891,-0.10395 z"
           id="path360" />
        <path
           inkscape:connector-curvature="0"
           style="fill:#ef402b;stroke-width:0.02772205"
           d="m 72.141744,123.35915 -2.067309,-0.59648 0.03436,-0.18394 c 0.04836,-0.2589 0.09449,-0.75029 0.09449,-1.00656 0,-0.12905 0.01146,-0.21696 0.02829,-0.21696 0.01556,0 0.951793,-0.0873 2.080522,-0.19406 1.128728,-0.10673 2.090628,-0.19406 2.137554,-0.19406 h 0.08532 l -0.01514,0.78316 c -0.01127,0.58317 -0.02957,0.87874 -0.07164,1.15742 -0.08655,0.57333 -0.187784,1.05555 -0.220568,1.05071 -0.01021,-0.001 -0.948859,-0.27116 -2.085879,-0.59923 z"
           id="path358" />
        <path
           inkscape:connector-curvature="0"
           style="fill:#c31f33;stroke-width:0.02772205"
           d="m 70.135475,120.71066 c -0.0058,-0.0191 -0.03159,-0.14823 -0.05723,-0.28704 -0.02563,-0.13882 -0.106648,-0.43198 -0.180037,-0.65148 -0.07339,-0.2195 -0.131449,-0.40084 -0.129024,-0.40298 0.0024,-0.002 0.869935,-0.43649 1.9278,-0.96523 1.074766,-0.53718 1.933918,-0.95082 1.947251,-0.93748 0.04127,0.0413 0.290127,0.67484 0.410981,1.04633 0.174118,0.53521 0.352652,1.32498 0.394996,1.74733 l 0.0083,0.0831 -2.092981,0.19948 c -1.151139,0.10971 -2.12144,0.20018 -2.156224,0.20105 -0.03478,8.7e-4 -0.06802,-0.014 -0.07387,-0.0331 z"
           id="path356" />
        <path
           inkscape:connector-curvature="0"
           style="fill:#007dbc;stroke-width:0.02772205"
           d="m 56.859676,120.49525 c -1.141126,-0.10418 -2.078771,-0.19346 -2.083655,-0.19839 -0.03544,-0.0358 0.170621,-1.02437 0.321408,-1.54201 0.125677,-0.43144 0.453667,-1.28841 0.525398,-1.37276 0.01383,-0.0163 3.817058,1.85586 3.873499,1.90673 0.0041,0.004 -0.03528,0.11771 -0.0875,0.25339 -0.125708,0.32661 -0.20361,0.58861 -0.263976,0.88781 -0.04834,0.23958 -0.05173,0.2461 -0.130017,0.25033 -0.04421,0.002 -1.014033,-0.0809 -2.155159,-0.1851 z"
           id="path354" />
        <path
           inkscape:connector-curvature="0"
           style="fill:#279b48;stroke-width:0.02772205"
           d="m 69.267154,118.49155 c -0.110828,-0.17081 -0.30196,-0.42683 -0.424738,-0.56894 l -0.223232,-0.25836 0.120237,-0.12975 c 0.06613,-0.0714 0.724333,-0.7898 1.462672,-1.59654 l 1.342434,-1.46679 0.251121,0.26118 c 0.497427,0.51735 0.972165,1.14155 1.34726,1.77142 0.10442,0.17535 0.193663,0.33408 0.198316,0.35275 0.0051,0.0204 -0.757997,0.41548 -1.914308,0.99108 -1.057522,0.52643 -1.930752,0.95655 -1.940512,0.95582 -0.0098,-7.2e-4 -0.108422,-0.14106 -0.21925,-0.31187 z"
           id="path352" />
        <path
           inkscape:connector-curvature="0"
           style="fill:#5dbb46;stroke-width:0.02772205"
           d="m 57.859229,117.78142 c -1.062914,-0.52575 -1.93257,-0.96969 -1.93257,-0.98652 0,-0.0168 0.09494,-0.18588 0.210973,-0.37565 0.397606,-0.65025 0.802154,-1.17428 1.299835,-1.68373 l 0.332677,-0.34055 1.441524,1.58287 c 0.792838,0.87058 1.446107,1.59584 1.451709,1.61169 0.0056,0.0159 -0.05827,0.0993 -0.141935,0.18538 -0.204877,0.21087 -0.387214,0.44137 -0.574158,0.72583 l -0.155485,0.23659 z"
           id="path350" />
        <path
           inkscape:connector-curvature="0"
           style="fill:#d3a029;stroke-width:0.02772205"
           d="m 67.966412,117.10252 c -0.233345,-0.17554 -0.621978,-0.41913 -0.862128,-0.54037 -0.154572,-0.078 -0.168444,-0.0921 -0.146459,-0.14852 0.01336,-0.0343 0.362531,-0.94099 0.775941,-2.0149 0.41341,-1.07391 0.75535,-1.95626 0.759867,-1.96078 0.02218,-0.0222 1.047074,0.51181 1.36313,0.71022 0.306354,0.19232 0.884589,0.61224 1.158397,0.84125 l 0.07725,0.0646 -1.431727,1.56447 c -0.787451,0.86045 -1.446232,1.57989 -1.463959,1.59875 -0.02525,0.0269 -0.07515,0.002 -0.230317,-0.11474 z"
           id="path348" />
        <path
           inkscape:connector-curvature="0"
           style="fill:#02558b;stroke-width:0.02772205"
           d="m 59.693852,115.5955 c -0.798842,-0.87619 -1.455228,-1.601 -1.458637,-1.6107 -0.0074,-0.0211 0.427395,-0.36405 0.731869,-0.57735 0.473021,-0.33137 1.518191,-0.90536 1.756031,-0.96438 0.06939,-0.0172 0.07583,-0.002 0.845509,1.98265 0.426571,1.09999 0.778253,2.0082 0.781514,2.01823 0.0033,0.01 -0.06968,0.0524 -0.162099,0.0942 -0.221702,0.10022 -0.539603,0.29065 -0.817029,0.48942 l -0.224716,0.16101 z"
           id="path346" />
        <path
           inkscape:connector-curvature="0"
           style="fill:#eb1c2d;stroke-width:0.02772205"
           d="m 65.955475,116.15445 c -0.194107,-0.0505 -0.493501,-0.10818 -0.665318,-0.12823 l -0.312396,-0.0365 -0.0071,-2.16871 -0.0071,-2.16871 0.104125,1e-4 c 0.392842,3.6e-4 1.344841,0.13781 1.909571,0.27572 0.369239,0.0902 0.870879,0.24449 0.907733,0.27924 0.02988,0.0282 -1.510208,4.04784 -1.548872,4.04259 -0.01525,-0.002 -0.186536,-0.0451 -0.380644,-0.0955 z"
           id="path344" />
        <path
           inkscape:connector-curvature="0"
           style="fill:#183668;stroke-width:0.02772205"
           d="m 62.151621,114.23746 c -0.42397,-1.094 -0.775998,-2.00249 -0.782285,-2.01887 -0.02254,-0.0587 0.997774,-0.33913 1.598609,-0.43936 0.352555,-0.0588 0.99848,-0.12623 1.212989,-0.1266 l 0.173429,-2.9e-4 -0.0071,2.16928 -0.0071,2.16929 -0.240477,0.0183 c -0.262471,0.02 -0.766127,0.11 -0.981746,0.17541 -0.07487,0.0227 -0.149485,0.0414 -0.165801,0.0416 -0.01631,1.6e-4 -0.37655,-0.89479 -0.800519,-1.98879 z"
           id="path183" />
      </g>
      <text
         transform="scale(1.0688508,0.93558427)"
         id="text823-8-9-6-2-2-7-7"
         y="59.007633"
         x="110.78747"
         style="font-style:normal;font-variant:normal;font-weight:bold;font-stretch:normal;font-size:4.93888903px;line-height:1.25;font-family:Roboto;-inkscape-font-specification:'Roboto Bold';letter-spacing:0px;word-spacing:0px;fill:#b39361;fill-opacity:1;stroke:none;stroke-width:0.24122888"
         xml:space="preserve"><tspan
           style="font-style:normal;font-variant:normal;font-weight:bold;font-stretch:normal;font-size:4.93888903px;font-family:Roboto;-inkscape-font-specification:'Roboto Bold';fill:#b39361;stroke-width:0.24122888"
           y="59.007633"
           x="110.78747"
           id="tspan821-9-0-0-1-6-2-0"
           sodipodi:role="line">Impacts </tspan><tspan
           id="tspan220"
           style="font-style:normal;font-variant:normal;font-weight:bold;font-stretch:normal;font-size:4.93888903px;font-family:Roboto;-inkscape-font-specification:'Roboto Bold';fill:#b39361;stroke-width:0.24122888"
           y="65.181244"
           x="110.78747"
           sodipodi:role="line">Positifs</tspan></text>
    </g>
  </g>
</svg>
