<?xml version="1.0" encoding="UTF-8" standalone="no"?>
<!-- Created with Inkscape (http://www.inkscape.org/) -->

<svg
   xmlns:dc="http://purl.org/dc/elements/1.1/"
   xmlns:cc="http://creativecommons.org/ns#"
   xmlns:rdf="http://www.w3.org/1999/02/22-rdf-syntax-ns#"
   xmlns:svg="http://www.w3.org/2000/svg"
   xmlns="http://www.w3.org/2000/svg"
   xmlns:sodipodi="http://sodipodi.sourceforge.net/DTD/sodipodi-0.dtd"
   xmlns:inkscape="http://www.inkscape.org/namespaces/inkscape"
   width="20.023518mm"
   height="9.4402685mm"
   viewBox="0 0 20.023518 9.4402685"
   version="1.1"
   id="svg8"
   inkscape:version="0.92.4 (5da689c313, 2019-01-14)"
   sodipodi:docname="Bouton Suivre.svg">
  <defs
     id="defs2">
    <pattern
       y="0"
       x="0"
       height="6"
       width="6"
       patternUnits="userSpaceOnUse"
       id="EMFhbasepattern" />
  </defs>
  <sodipodi:namedview
     id="base"
     pagecolor="#ffffff"
     bordercolor="#666666"
     borderopacity="1.0"
     inkscape:pageopacity="0.0"
     inkscape:pageshadow="2"
     inkscape:zoom="1"
     inkscape:cx="246.28284"
     inkscape:cy="90.839871"
     inkscape:document-units="mm"
     inkscape:current-layer="layer1"
     showgrid="false"
     showborder="false"
     inkscape:window-width="1280"
     inkscape:window-height="898"
     inkscape:window-x="-8"
     inkscape:window-y="-8"
     inkscape:window-maximized="1"
     fit-margin-top="0"
     fit-margin-left="0"
     fit-margin-right="0"
     fit-margin-bottom="0" />
  <metadata
     id="metadata5">
    <rdf:RDF>
      <cc:Work
         rdf:about="">
        <dc:format>image/svg+xml</dc:format>
        <dc:type
           rdf:resource="http://purl.org/dc/dcmitype/StillImage" />
        <dc:title></dc:title>
      </cc:Work>
    </rdf:RDF>
  </metadata>
  <g
     inkscape:label="Calque 1"
     inkscape:groupmode="layer"
     id="layer1"
     transform="translate(-38.936158,-99.927781)">
    <g
       id="g919">
      <path
         inkscape:connector-curvature="0"
         style="fill:#ffffff;fill-opacity:1;fill-rule:nonzero;stroke:#80db22;stroke-width:0.19049859px;stroke-linecap:butt;stroke-linejoin:miter;stroke-miterlimit:4;stroke-dasharray:none;stroke-opacity:1"
         d="m 39.412404,100.02303 h 19.071025 c 0.211665,0 0.380997,0.33867 0.380997,0.78317 v 7.68344 c 0,0.4445 -0.169332,0.78316 -0.380997,0.78316 H 39.412404 c -0.211665,0 -0.380997,-0.33866 -0.380997,-0.78316 v -7.68344 c 0,-0.4445 0.169332,-0.78317 0.380997,-0.78317 z"
         id="path880" />
      <path
         inkscape:connector-curvature="0"
         style="fill:#80db22;fill-opacity:1;fill-rule:nonzero;stroke:none;stroke-width:0.26458332"
         d="m 50.059158,100.57336 c -0.402163,0 -0.783161,0.10584 -1.121825,0.33867 -0.317497,-0.21167 -0.698494,-0.33867 -1.100658,-0.33867 -0.507996,0 -0.994826,0.1905 -1.354657,0.5715 -0.380997,0.35983 -0.571496,0.84666 -0.571496,1.35466 0,0.52916 0.190499,1.01599 0.571496,1.37582 l 2.455315,2.83631 2.476482,-2.83631 c 0.761994,-0.762 0.761994,-1.98965 0,-2.73048 -0.359831,-0.381 -0.846661,-0.5715 -1.354657,-0.5715 z m 1.206491,3.15381 -2.328316,2.64582 -2.307149,-2.64582 c -0.317498,-0.31749 -0.507996,-0.76199 -0.507996,-1.22765 0,-0.4445 0.190498,-0.889 0.507996,-1.2065 0.317497,-0.33866 0.761994,-0.50799 1.206491,-0.50799 0.380997,0 0.740828,0.127 1.037159,0.33866 l 0.0635,0.0635 0.08467,-0.0635 c 0.296331,-0.21166 0.656162,-0.33866 1.037159,-0.33866 0.444497,0 0.888994,0.1905 1.206491,0.50799 0.677329,0.67733 0.677329,1.75683 0,2.43415 z"
         id="path882" />
      <path
         inkscape:connector-curvature="0"
         style="fill:#80db22;fill-opacity:1;fill-rule:nonzero;stroke:none;stroke-width:0.26458332"
         d="m 45.571858,108.02398 c 0,-0.10584 -0.04233,-0.21167 -0.126999,-0.27517 -0.08467,-0.0847 -0.232831,-0.14817 -0.444496,-0.1905 -0.275165,-0.0635 -0.48683,-0.16933 -0.634996,-0.29633 -0.148165,-0.10583 -0.211665,-0.27516 -0.211665,-0.46566 0,-0.1905 0.0635,-0.33867 0.232832,-0.48683 0.169332,-0.127 0.359831,-0.1905 0.613829,-0.1905 0.275164,0 0.507996,0.0847 0.656162,0.23283 0.169332,0.14817 0.253997,0.3175 0.253997,0.52916 h -0.02117 -0.317498 c 0,-0.14816 -0.04233,-0.27516 -0.148165,-0.35983 -0.08467,-0.0847 -0.232832,-0.127 -0.42333,-0.127 -0.169332,0 -0.296332,0.0423 -0.380997,0.10584 -0.08467,0.0847 -0.127,0.16933 -0.127,0.29633 0,0.10583 0.04233,0.21166 0.148166,0.27516 0.08467,0.0847 0.253998,0.14817 0.465663,0.1905 0.275165,0.0635 0.465663,0.16933 0.613829,0.29633 0.126999,0.127 0.190498,0.27517 0.190498,0.46567 0,0.21166 -0.08467,0.38099 -0.232831,0.48682 -0.169332,0.127 -0.380997,0.1905 -0.656162,0.1905 -0.253998,0 -0.465663,-0.0635 -0.656162,-0.21166 -0.190498,-0.127 -0.296331,-0.3175 -0.296331,-0.52916 l 0.02117,-0.0212 H 44.4077 c 0,0.16933 0.0635,0.29633 0.169332,0.381 0.126999,0.0847 0.275165,0.10583 0.444497,0.10583 0.169332,0 0.317497,-0.0212 0.402163,-0.10583 0.105833,-0.0635 0.148166,-0.16934 0.148166,-0.29633 z"
         id="path884" />
      <path
         inkscape:connector-curvature="0"
         style="fill:#80db22;fill-opacity:1;fill-rule:nonzero;stroke:none;stroke-width:0.26458332"
         d="m 47.540344,108.38381 c -0.0635,0.10583 -0.148166,0.19049 -0.232832,0.23283 -0.08467,0.0635 -0.211665,0.0847 -0.317497,0.0847 -0.211666,0 -0.359831,-0.0635 -0.48683,-0.1905 -0.105833,-0.12699 -0.169332,-0.33866 -0.169332,-0.61382 v -1.10066 h 0.338664 v 1.10066 c 0,0.21166 0.04233,0.33866 0.08467,0.42333 0.0635,0.0635 0.169332,0.10583 0.275165,0.10583 0.126998,0 0.232831,-0.0212 0.296331,-0.0635 0.08467,-0.0635 0.148165,-0.127 0.190498,-0.21167 v -1.35465 h 0.338665 v 1.86265 H 47.56151 Z"
         id="path886" />
      <path
         inkscape:connector-curvature="0"
         style="fill:#80db22;fill-opacity:1;fill-rule:nonzero;stroke:none;stroke-width:0.26458332"
         d="m 48.725669,108.65897 h -0.338665 v -1.86265 h 0.338665 z m 0,-2.32832 h -0.338665 v -0.35983 h 0.338665 z"
         id="path888" />
      <path
         inkscape:connector-curvature="0"
         style="fill:#80db22;fill-opacity:1;fill-rule:nonzero;stroke:none;stroke-width:0.26458332"
         d="m 49.86866,108.10864 0.02117,0.14817 H 49.911 l 0.02117,-0.14817 0.42333,-1.31232 h 0.359831 l -0.698506,1.86265 h -0.253998 l -0.698495,-1.86265 h 0.359831 z"
         id="path890" />
      <path
         inkscape:connector-curvature="0"
         style="fill:#80db22;fill-opacity:1;fill-rule:nonzero;stroke:none;stroke-width:0.26458332"
         d="m 51.900645,107.09265 h -0.169333 c -0.08467,0 -0.169332,0.0212 -0.232831,0.0635 -0.0635,0.0423 -0.105833,0.10583 -0.148166,0.16933 v 1.33349 h -0.338664 v -1.86265 h 0.317498 l 0.02117,0.27516 c 0.0635,-0.0847 0.126999,-0.16933 0.190499,-0.23283 0.08467,-0.0423 0.169332,-0.0635 0.275164,-0.0635 0.02117,0 0.04233,0 0.0635,0 0.04233,0 0.04233,0 0.0635,0.0212 z"
         id="path892" />
      <path
         inkscape:connector-curvature="0"
         style="fill:#80db22;fill-opacity:1;fill-rule:nonzero;stroke:none;stroke-width:0.26458332"
         d="m 52.980137,108.7013 c -0.275165,0 -0.48683,-0.0847 -0.634996,-0.25399 -0.148165,-0.16934 -0.232831,-0.40217 -0.232831,-0.67733 v -0.0847 c 0,-0.254 0.08467,-0.48683 0.253998,-0.65616 0.148165,-0.16933 0.338664,-0.254 0.550329,-0.254 0.253998,0 0.444497,0.0635 0.571496,0.21167 0.126999,0.16933 0.190498,0.35983 0.190498,0.61382 v 0.21167 H 52.47214 v 0 c 0,0.1905 0.04233,0.33866 0.126999,0.4445 0.08467,0.127 0.211665,0.16933 0.380998,0.16933 0.105832,0 0.211665,0 0.296331,-0.0423 0.08467,-0.0212 0.148165,-0.0847 0.211665,-0.127 l 0.148165,0.21166 c -0.0635,0.0635 -0.169332,0.127 -0.275164,0.16933 -0.105833,0.0423 -0.232832,0.0635 -0.380997,0.0635 z m -0.0635,-1.67215 c -0.105833,0 -0.211665,0.0635 -0.296331,0.14816 -0.0635,0.10584 -0.126999,0.21167 -0.148166,0.35984 v 0 h 0.867827 v -0.0423 c 0,-0.127 -0.04233,-0.23283 -0.105832,-0.3175 -0.0635,-0.10583 -0.169332,-0.14816 -0.317498,-0.14816 z"
         id="path894" />
    </g>
  </g>
</svg>
